<svg xmlns="http://www.w3.org/2000/svg" width="264" height="17.06" viewBox="0 0 264 17.06">
  <g id="marca_lojistas" data-name="marca lojistas" transform="translate(100 -5907)">
    <g id="Grupo_23603" data-name="Grupo 23603" transform="translate(-100 5907)">
      <path id="Caminho_7413" data-name="Caminho 7413" d="M82.511,0V17.036h4.543v-6.4h8.881V6.883H87.054V3.748h8.881V0Z" transform="translate(-47.321 0)" fill="#271718"/>
      <path id="Caminho_7412" data-name="Caminho 7412" d="M120.639,0V17.036h4.543v-6.4h8.881V6.883h-8.881V3.748h8.881V0Z" transform="translate(-69.187 0)" fill="#271718"/>
      <path id="Caminho_7411" data-name="Caminho 7411" d="M158.767,0V17.036h14.219V13.288H163.2V10.336h9.79V6.7H163.2V3.748h9.79V0Z" transform="translate(-91.054 0)" fill="#271718"/>
      <rect id="Retângulo_4362" data-name="Retângulo 4362" width="4.543" height="17.035" transform="translate(84.769)" fill="#271718"/>
      <path id="Caminho_7410" data-name="Caminho 7410" d="M232.1,0h-4.517l.1,3.51.08,3.465.142,5.668L224.278,3.51a7.743,7.743,0,0,0-1.6-2.548A3.545,3.545,0,0,0,220.009,0h-3.947V17.036h3.946V3.915l.023,0a.3.3,0,0,1,.246.112,1.064,1.064,0,0,1,.157.29l4.855,12.721H232.1V11.99l-.016.025Z" transform="translate(-123.913 0)" fill="#271718"/>
      <path id="Caminho_7405" data-name="Caminho 7405" d="M411.567,0h-.045A3.527,3.527,0,0,0,408.9.963a7.747,7.747,0,0,0-1.6,2.548l-1.908,4.637L403.48,3.511a7.741,7.741,0,0,0-1.6-2.548A3.527,3.527,0,0,0,399.255,0h-3.99V17.037h3.946V3.916l.022,0a.3.3,0,0,1,.246.112,1.08,1.08,0,0,1,.157.29l3.149,8.162a1.609,1.609,0,0,0,1.5,1.03h2.2a1.608,1.608,0,0,0,1.5-1.03l3.15-8.162a1.081,1.081,0,0,1,.157-.29.294.294,0,0,1,.224-.11V17.037h3.946V0Z" transform="translate(-226.687 -0.001)" fill="#271718"/>
      <path id="Caminho_7407" data-name="Caminho 7407" d="M368.193,6.422V4.054A4.053,4.053,0,0,0,364.14,0H351.771V17.036h4.009V3.5h7.83a1.063,1.063,0,0,1,1.064,1.063V5.914a1.063,1.063,0,0,1-1.064,1.064h-4.838A1.731,1.731,0,0,0,357.425,9.8l5.85,7.239h4.849l-5.286-6.56h1.3a4.054,4.054,0,0,0,4.053-4.054" transform="translate(-201.743 -0.001)" fill="#271718"/>
      <path id="Caminho_7408" data-name="Caminho 7408" d="M315.233,0h7.093V17.036h-4.247V13.469h-7.042l-1.443,3.567h-4.218l5.772-14.29A4.41,4.41,0,0,1,315.233,0m-2.776,9.948h5.622V3.862h-1.623a2.55,2.55,0,0,0-1.065.265,2.234,2.234,0,0,0-.939.876Z" transform="translate(-175.135 -0.001)" fill="#271718"/>
      <path id="Caminho_7406" data-name="Caminho 7406" d="M453.9,11.488,445.964,0h5.163l4.468,5.917c.171.263.446.271.554,0L458.541,0h4.784l-6.883,17.035h-4.784Z" transform="translate(-255.764 -0.002)" fill="#271718"/>
      <path id="Caminho_7414" data-name="Caminho 7414" d="M45.974,0h7.093V17.036H48.82V13.469H41.778l-1.443,3.567H36.117l5.772-14.29A4.409,4.409,0,0,1,45.974,0M43.2,9.949H48.82V3.862H47.2a2.55,2.55,0,0,0-1.065.265A2.234,2.234,0,0,0,45.193,5Z" transform="translate(-20.713 -0.001)" fill="#271718"/>
      <path id="Caminho_7415" data-name="Caminho 7415" d="M2.067,15.128a6.929,6.929,0,0,0,2.566,1.453,11.353,11.353,0,0,0,3.567.511h4.349l1.514-3.748H8.54a4.1,4.1,0,0,1-2.975-.829A3.878,3.878,0,0,1,4.77,9.779V7.371a3.955,3.955,0,0,1,.772-2.737,3.893,3.893,0,0,1,2.884-.83h9.49L19.431.057H8.2A11.352,11.352,0,0,0,4.633.569,6.941,6.941,0,0,0,2.067,2.022,6.037,6.037,0,0,0,.522,4.316,8.276,8.276,0,0,0,0,7.326v2.5a8.278,8.278,0,0,0,.522,3.01,6.032,6.032,0,0,0,1.544,2.294" transform="translate(0 -0.033)" fill="#271718"/>
      <path id="Caminho_7409" data-name="Caminho 7409" d="M272.515,13.289h-7.76V10.336h8.953L275.177,6.7H264.755V3.749H276.37L277.884,0H260.326V17.036H271Z" transform="translate(-149.299 -0.001)" fill="#271718"/>
    </g>
    <path id="Caminho_7404" data-name="Caminho 7404" d="M540.178,17.06l-45.8-.053L501.276,0l43.908.053a2.333,2.333,0,0,1,2.172,3.206L542.35,15.6a2.342,2.342,0,0,1-2.172,1.459" transform="translate(-383.529 5907)" fill="#fb637e"/>
    <g id="Grupo_23602" data-name="Grupo 23602" transform="translate(119.97 5908.357)">
      <path id="Caminho_7396" data-name="Caminho 7396" d="M515.766,15.6l2.438-11.5h1.15l-2.437,11.5Z" transform="translate(-515.766 -3.712)" fill="#fff"/>
      <path id="Caminho_7397" data-name="Caminho 7397" d="M528.817,11.534l-.8,3.819c-.43,2.068-1.1,2.916-2.733,2.916-1.5,0-2.328-.92-1.886-3.011l.846-4.024c.333-1.567.969-2.741,2.666-2.741,1.662,0,2.309,1.121,1.909,3.042m-3.406-.3-.9,4.205c-.27,1.3.156,1.842.889,1.842.7,0,1.111-.408,1.405-1.77l.885-4.126c.252-1.166.022-1.9-.9-1.9-.811,0-1.148.675-1.382,1.752" transform="translate(-520.073 -6.228)" fill="#fff"/>
      <path id="Caminho_7398" data-name="Caminho 7398" d="M537.718,8.844l-2.04,9.6c-.282,1.345-.537,2.382-1.966,2.382a3.858,3.858,0,0,1-.827-.083l.229-1.05a4.45,4.45,0,0,0,.5.044c.479,0,.653-.133.863-1.1l2.09-9.8Z" transform="translate(-525.584 -6.43)" fill="#fff"/>
      <path id="Caminho_7399" data-name="Caminho 7399" d="M545.781,8.844h1.151l-2.014,9.477h-1.151Z" transform="translate(-531.825 -6.429)" fill="#fff"/>
      <path id="Caminho_7400" data-name="Caminho 7400" d="M552.074,15.361l-.07.351c-.179.954.009,1.595.885,1.595.606,0,.954-.335,1.152-1.218a2.365,2.365,0,0,0-.84-2.567c-1.107-1.063-1.478-1.7-1.229-3.062a2.073,2.073,0,0,1,2.157-1.967c1.632,0,2.062,1.2,1.81,2.477l-.075.374h-1.092l.075-.449c.142-.862.013-1.44-.779-1.44-.488,0-.856.341-.991,1.152-.123.762-.008,1.171.812,1.961,1.3,1.262,1.612,2.02,1.289,3.593a2.257,2.257,0,0,1-2.37,2.109c-1.845,0-2.235-1.232-1.9-2.733l.038-.174Z" transform="translate(-535.857 -6.228)" fill="#fff"/>
      <path id="Caminho_7401" data-name="Caminho 7401" d="M564.553,5.6h1.082l.542-2.414h1.132l-.53,2.414H568.1l-.217,1.008h-1.322l-1.44,6.623c-.142.69-.044,1.008.541,1.008a3.516,3.516,0,0,0,.688-.074l-.2.924a3.465,3.465,0,0,1-.968.113c-.9,0-1.548-.38-1.246-1.78L565.4,6.606h-1.068Z" transform="translate(-543.347 -3.183)" fill="#fff"/>
      <path id="Caminho_7402" data-name="Caminho 7402" d="M576.205,16.242c-.108.533-.311,1.548-.359,1.877h-1.119c.031-.252.08-.588.136-.862a1.72,1.72,0,0,1-1.7,1.012c-1.37,0-1.66-1.32-1.354-2.778.432-2.034,1.5-2.661,3.694-3.022l.374-.056.315-1.489c.215-.966-.009-1.476-.756-1.476-.777,0-.956.6-1.19,1.531l-.05.2h-1.132l.026-.12c.261-1.244.628-2.563,2.472-2.563,1.518,0,2.087.9,1.787,2.316Zm-.514-2.868-.353.056c-1.35.254-2.064.661-2.38,2.057-.215.99-.078,1.748.721,1.748.878,0,1.381-.882,1.751-2.664Z" transform="translate(-547.847 -6.228)" fill="#fff"/>
      <path id="Caminho_7403" data-name="Caminho 7403" d="M586.6,15.361l-.07.351c-.179.954.008,1.595.884,1.595.606,0,.955-.335,1.152-1.218a2.365,2.365,0,0,0-.84-2.567c-1.107-1.063-1.479-1.7-1.229-3.062a2.073,2.073,0,0,1,2.157-1.967c1.632,0,2.062,1.2,1.81,2.477l-.075.374H589.3l.075-.449c.142-.862.013-1.44-.779-1.44-.488,0-.856.341-.991,1.152-.123.762-.008,1.171.812,1.961,1.3,1.262,1.612,2.02,1.289,3.593a2.257,2.257,0,0,1-2.37,2.109c-1.845,0-2.235-1.232-1.9-2.733l.038-.174Z" transform="translate(-555.661 -6.228)" fill="#fff"/>
    </g>
  </g>
</svg>
